<svg width="251" height="70" viewBox="0 0 251 70" fill="none" xmlns="http://www.w3.org/2000/svg">
<path d="M79.3283 43.8118L86.5806 25.6178H90.4974L97.7245 43.8118H94.212L88.5264 28.2711L82.8408 43.8118H79.3283ZM83.6494 38.4546V35.814H93.3781V38.4546H83.6494ZM104.813 44.1276C103.802 44.1276 102.858 43.976 101.982 43.6728C101.115 43.3611 100.386 42.8852 99.7966 42.2451C99.2154 41.5965 98.8363 40.7668 98.6594 39.756L101.629 39.1748C101.713 40.0593 102.02 40.7205 102.551 41.1585C103.09 41.5965 103.806 41.8155 104.699 41.8155C105.583 41.8155 106.257 41.6217 106.72 41.2343C107.192 40.8468 107.428 40.3835 107.428 39.8445C107.428 39.3728 107.251 38.9811 106.897 38.6694C106.552 38.3578 105.996 38.1388 105.229 38.0124L103.827 37.7724C103.355 37.6881 102.858 37.5786 102.336 37.4439C101.814 37.3007 101.321 37.0985 100.858 36.8374C100.395 36.5679 100.016 36.2057 99.7207 35.7508C99.4344 35.2875 99.2912 34.7021 99.2912 33.9946C99.2912 33.0933 99.5312 32.3352 100.011 31.7203C100.491 31.1055 101.14 30.6422 101.957 30.3305C102.783 30.0104 103.709 29.8504 104.737 29.8504C105.739 29.8504 106.636 30.002 107.428 30.3053C108.228 30.6001 108.889 31.0339 109.412 31.6066C109.942 32.1794 110.288 32.8827 110.448 33.7166L107.441 34.3231C107.382 33.9188 107.259 33.5524 107.074 33.2239C106.889 32.8869 106.611 32.6216 106.24 32.4279C105.878 32.2257 105.398 32.1247 104.8 32.1247C104.101 32.1247 103.524 32.2678 103.069 32.5542C102.614 32.8322 102.387 33.2323 102.387 33.7545C102.387 34.0999 102.488 34.3863 102.69 34.6137C102.9 34.8327 103.195 35.0138 103.574 35.157C103.953 35.3002 104.4 35.4223 104.914 35.5234L106.43 35.814C107.146 35.9319 107.82 36.1383 108.451 36.4331C109.083 36.7195 109.593 37.1238 109.98 37.646C110.376 38.1683 110.574 38.8547 110.574 39.7055C110.574 40.6489 110.325 41.4533 109.829 42.1187C109.332 42.7757 108.649 43.2769 107.782 43.6222C106.914 43.9592 105.924 44.1276 104.813 44.1276ZM118.685 44.1276C117.675 44.1276 116.731 43.976 115.855 43.6728C114.988 43.3611 114.259 42.8852 113.669 42.2451C113.088 41.5965 112.709 40.7668 112.532 39.756L115.502 39.1748C115.586 40.0593 115.893 40.7205 116.424 41.1585C116.963 41.5965 117.679 41.8155 118.572 41.8155C119.456 41.8155 120.13 41.6217 120.593 41.2343C121.065 40.8468 121.301 40.3835 121.301 39.8445C121.301 39.3728 121.124 38.9811 120.77 38.6694C120.425 38.3578 119.869 38.1388 119.102 38.0124L117.7 37.7724C117.228 37.6881 116.731 37.5786 116.209 37.4439C115.687 37.3007 115.194 37.0985 114.731 36.8374C114.268 36.5679 113.888 36.2057 113.594 35.7508C113.307 35.2875 113.164 34.7021 113.164 33.9946C113.164 33.0933 113.404 32.3352 113.884 31.7203C114.364 31.1055 115.013 30.6422 115.83 30.3305C116.655 30.0104 117.582 29.8504 118.61 29.8504C119.612 29.8504 120.509 30.002 121.301 30.3053C122.101 30.6001 122.762 31.0339 123.284 31.6066C123.815 32.1794 124.161 32.8827 124.321 33.7166L121.313 34.3231C121.255 33.9188 121.132 33.5524 120.947 33.2239C120.762 32.8869 120.484 32.6216 120.113 32.4279C119.751 32.2257 119.271 32.1247 118.673 32.1247C117.974 32.1247 117.397 32.2678 116.942 32.5542C116.487 32.8322 116.26 33.2323 116.26 33.7545C116.26 34.0999 116.361 34.3863 116.563 34.6137C116.773 34.8327 117.068 35.0138 117.447 35.157C117.826 35.3002 118.273 35.4223 118.787 35.5234L120.303 35.814C121.019 35.9319 121.693 36.1383 122.324 36.4331C122.956 36.7195 123.466 37.1238 123.853 37.646C124.249 38.1683 124.447 38.8547 124.447 39.7055C124.447 40.6489 124.198 41.4533 123.701 42.1187C123.204 42.7757 122.522 43.2769 121.655 43.6222C120.787 43.9592 119.797 44.1276 118.685 44.1276ZM133.455 44.1276C132.133 44.1276 130.962 43.837 129.943 43.2558C128.924 42.6746 128.124 41.8492 127.542 40.7794C126.961 39.7097 126.671 38.4462 126.671 36.989C126.671 35.5318 126.957 34.2683 127.53 33.1986C128.103 32.1289 128.894 31.3034 129.905 30.7222C130.916 30.141 132.082 29.8504 133.405 29.8504C134.146 29.8504 134.892 29.9641 135.641 30.1915C136.399 30.419 137.09 30.8233 137.713 31.4045C138.345 31.9772 138.855 32.7732 139.242 33.7924C139.63 34.8032 139.823 36.0877 139.823 37.646H128.68V35.6624H137.044L136.564 36.3826C136.513 35.3634 136.336 34.5463 136.033 33.9314C135.738 33.3081 135.355 32.8575 134.883 32.5795C134.42 32.2931 133.902 32.1499 133.329 32.1499C132.605 32.1499 131.994 32.3479 131.497 32.7438C131 33.1312 130.621 33.6914 130.36 34.4242C130.107 35.1486 129.981 36.0077 129.981 37.0017C129.981 38.4841 130.271 39.6465 130.853 40.4888C131.434 41.3227 132.293 41.7397 133.43 41.7397C134.205 41.7397 134.866 41.5417 135.414 41.1458C135.961 40.75 136.37 40.1603 136.639 39.377L139.545 40.1856C139.217 41.07 138.749 41.8028 138.143 42.384C137.536 42.9652 136.829 43.4032 136.02 43.6981C135.212 43.9844 134.357 44.1276 133.455 44.1276ZM145.939 43.8118C145.113 43.8118 144.456 43.5928 143.968 43.1548C143.479 42.7083 143.235 42.0977 143.235 41.3227V32.5416H141.188V30.1663H143.235V27.4245L146.355 26.6917V30.1663H148.958V32.5416H146.355V40.7289C146.355 41.0153 146.393 41.2048 146.469 41.2975C146.553 41.3901 146.726 41.4364 146.987 41.4364H149.072V43.8118H145.939ZM165.649 44.1276C163.871 44.1276 162.322 43.7317 160.999 42.94C159.685 42.1482 158.666 41.0406 157.942 39.617C157.217 38.1935 156.855 36.5384 156.855 34.6516C156.855 32.8069 157.205 31.1855 157.904 29.7872C158.611 28.3806 159.622 27.2813 160.936 26.4896C162.25 25.6978 163.812 25.3019 165.623 25.3019C167.594 25.3019 169.283 25.7989 170.69 26.7928C172.105 27.7867 173.036 29.2524 173.482 31.1897L170.121 31.973C169.827 30.6506 169.279 29.6651 168.479 29.0165C167.687 28.3679 166.727 28.0436 165.598 28.0436C164.486 28.0436 163.534 28.3258 162.743 28.8902C161.959 29.4461 161.357 30.2252 160.936 31.2276C160.523 32.2215 160.317 33.3797 160.317 34.7021C160.317 36.0414 160.527 37.2164 160.949 38.2272C161.378 39.2296 161.98 40.0087 162.755 40.5646C163.539 41.1121 164.465 41.3859 165.535 41.3859C166.697 41.3859 167.687 41.049 168.504 40.3751C169.321 39.6928 169.86 38.7368 170.121 37.507L173.571 38.2778C173.074 40.1645 172.122 41.6133 170.715 42.6241C169.309 43.6265 167.62 44.1276 165.649 44.1276ZM176.211 43.8118V24.8597H179.332V33.3755L179.117 32.8069C179.505 31.9057 180.082 31.1897 180.848 30.659C181.623 30.1199 182.562 29.8504 183.666 29.8504C184.685 29.8504 185.536 30.082 186.218 30.5453C186.9 31.0002 187.414 31.6445 187.759 32.4784C188.113 33.3039 188.29 34.2726 188.29 35.3844V43.8118H185.157V35.7255C185.157 34.5968 184.98 33.7419 184.626 33.1607C184.281 32.5711 183.645 32.2763 182.718 32.2763C181.657 32.2763 180.827 32.6679 180.229 33.4513C179.631 34.2347 179.332 35.4097 179.332 36.9764V43.8118H176.211ZM195.555 44.1276C194.671 44.1276 193.875 43.9676 193.167 43.6475C192.46 43.3274 191.899 42.8642 191.487 42.2577C191.074 41.6428 190.868 40.91 190.868 40.0593C190.868 39.1411 191.133 38.3409 191.664 37.6587C192.203 36.968 192.994 36.4331 194.039 36.0541C195.092 35.675 196.393 35.4855 197.943 35.4855H199.99L199.762 35.7887V35.018C199.762 34.0409 199.577 33.3039 199.207 32.8069C198.836 32.31 198.221 32.0615 197.362 32.0615C196.545 32.0615 195.917 32.2763 195.479 32.7059C195.041 33.1354 194.789 33.7293 194.721 34.4873L191.449 33.8682C191.558 33.1186 191.862 32.4405 192.358 31.8341C192.864 31.2276 193.55 30.7433 194.418 30.3811C195.286 30.0189 196.33 29.8378 197.551 29.8378C198.714 29.8378 199.687 30.0357 200.47 30.4316C201.253 30.8275 201.839 31.4424 202.226 32.2763C202.622 33.1017 202.82 34.1715 202.82 35.4855V40.7289C202.82 41.0153 202.858 41.2048 202.934 41.2975C203.018 41.3901 203.191 41.4364 203.452 41.4364H204.134V43.8118H202.504C201.679 43.8118 201.034 43.5928 200.571 43.1548C200.108 42.7083 199.876 42.0977 199.876 41.3227V40.552L200.407 40.7036C200.289 41.0658 200.116 41.4449 199.889 41.8408C199.661 42.2366 199.358 42.6073 198.979 42.9526C198.6 43.298 198.128 43.5801 197.564 43.7991C197.008 44.0181 196.338 44.1276 195.555 44.1276ZM196.414 41.866C197.046 41.866 197.615 41.7186 198.12 41.4238C198.634 41.1206 199.038 40.6615 199.333 40.0466C199.636 39.4233 199.788 38.64 199.788 37.6966V37.4691H197.994C197.008 37.4691 196.237 37.5997 195.681 37.8608C195.126 38.1135 194.734 38.4294 194.506 38.8084C194.279 39.179 194.165 39.5497 194.165 39.9203C194.165 40.2404 194.237 40.552 194.38 40.8552C194.532 41.1501 194.772 41.3943 195.1 41.5881C195.429 41.7734 195.867 41.866 196.414 41.866ZM206.838 43.8118V30.1663H209.959V43.8118H206.838ZM208.392 28.2837C207.743 28.2837 207.213 28.0773 206.8 27.6646C206.387 27.2519 206.181 26.7212 206.181 26.0726C206.181 25.4156 206.387 24.885 206.8 24.4806C207.213 24.0679 207.743 23.8615 208.392 23.8615C209.049 23.8615 209.58 24.0679 209.984 24.4806C210.397 24.885 210.603 25.4156 210.603 26.0726C210.603 26.7212 210.397 27.2519 209.984 27.6646C209.58 28.0773 209.049 28.2837 208.392 28.2837ZM213.673 43.8118V30.1663H216.668V33.287L216.579 32.7311C216.975 31.872 217.556 31.177 218.323 30.6464C219.089 30.1157 220.02 29.8504 221.115 29.8504C222.134 29.8504 222.985 30.082 223.667 30.5453C224.358 31.0002 224.876 31.6445 225.221 32.4784C225.575 33.3039 225.752 34.2726 225.752 35.3844V43.8118H222.619V35.5992C222.619 34.5716 222.429 33.763 222.05 33.1733C221.679 32.5753 221.052 32.2763 220.168 32.2763C219.148 32.2763 218.331 32.689 217.716 33.5145C217.101 34.3399 216.794 35.5739 216.794 37.2164V43.8118H213.673Z" fill="white"/>
<path d="M42.0668 38.5835H38.1495C37.0742 38.5835 36.0958 39.0246 35.3846 39.7358C34.6741 40.4471 34.2323 41.4254 34.2323 42.5008C34.2323 43.5761 34.6741 44.5545 35.3846 45.2658C36.0958 45.977 37.0742 46.4181 38.1495 46.4181C39.2249 46.4181 40.2033 45.977 40.9145 45.2658C41.6257 44.5545 42.0668 43.5761 42.0668 42.5008V38.5835ZM38.1495 34.4731H46.178V42.5008C46.178 44.7107 45.2751 46.7185 43.8208 48.1721C42.3673 49.6263 40.3594 50.5293 38.1495 50.5293C35.9396 50.5293 33.9318 49.6263 32.4783 48.1721C31.024 46.7185 30.1211 44.7107 30.1211 42.5008C30.1211 40.2909 31.024 38.2838 32.4783 36.8295C33.9318 35.3753 35.9396 34.4731 38.1495 34.4731Z" fill="url(#paint0_linear_1118_3128)"/>
<path d="M58.2557 34.4732H62.173C63.2483 34.4732 64.2267 34.0314 64.9379 33.3209C65.6484 32.6097 66.0903 31.6305 66.0903 30.5559C66.0903 29.4813 65.6484 28.5014 64.9379 27.791C64.2267 27.0797 63.2483 26.6386 62.173 26.6386C61.0976 26.6386 60.1192 27.0797 59.408 27.791C58.6968 28.5014 58.2557 29.4806 58.2557 30.5559V34.4732ZM62.173 38.5836H54.1445V30.5559C54.1445 28.346 55.0474 26.3382 56.5017 24.8839C57.956 23.4296 59.9631 22.5275 62.173 22.5275C64.3829 22.5275 66.3907 23.4304 67.8443 24.8839C69.2985 26.3382 70.2007 28.346 70.2007 30.5559C70.2007 32.7658 69.2985 34.7729 67.8443 36.2272C66.3907 37.6815 64.3829 38.5836 62.173 38.5836Z" fill="url(#paint1_linear_1118_3128)"/>
<path d="M58.2559 34.4725H62.1731C63.2485 34.4725 64.2269 34.0307 64.9381 33.3202C65.3252 32.9324 65.6323 32.4661 65.8321 31.9473H70.0795C69.7879 33.6014 68.9864 35.0846 67.8444 36.2265C66.3909 37.6808 64.383 38.5829 62.1731 38.5829H56.3701V31.9473H58.2559V34.4725Z" fill="#0049E7"/>
<path d="M43.1807 38.5835H56.3697V34.4731H43.1807V38.5835Z" fill="url(#paint2_linear_1118_3128)"/>
<path d="M56.3702 38.5835H46.1777V34.4731H56.3702V38.5835Z" fill="#0049E7"/>
<path d="M50.1615 46.4845C51.2546 46.4845 52.25 46.036 52.9731 45.3129C53.6961 44.5899 54.1446 43.5945 54.1446 42.5006V30.5556C54.1446 29.4618 53.6961 28.4664 52.9731 27.7433C52.25 27.0202 51.2546 26.5717 50.1607 26.5717C49.0669 26.5717 48.0722 27.0202 47.3491 27.7433C46.6261 28.4664 46.1776 29.4618 46.1776 30.5556V42.5006C46.1776 43.5945 46.6261 44.5899 47.3491 45.3129C48.0722 46.036 49.0676 46.4845 50.1615 46.4845ZM58.2558 30.5556V42.5006C58.2558 44.729 57.3455 46.7532 55.8794 48.2193C54.4133 49.6854 52.3891 50.5957 50.1615 50.5957C47.9338 50.5957 45.9089 49.6854 44.4428 48.2193C42.9767 46.7532 42.0664 44.729 42.0664 42.5006V30.5556C42.0664 28.3272 42.9767 26.3031 44.4428 24.837C45.9089 23.3709 47.9331 22.4606 50.1607 22.4606C52.3884 22.4606 54.4133 23.3709 55.8794 24.837C57.3455 26.3031 58.2558 28.3272 58.2558 30.5556Z" fill="url(#paint3_linear_1118_3128)"/>
<path d="M48.8861 26.7829C48.3014 26.9827 47.7767 27.315 47.3482 27.7435C46.6251 28.4665 46.1766 29.462 46.1766 30.5558V34.4731H42.0654V30.5558C42.0654 28.3274 42.9757 26.3033 44.4418 24.8372C45.623 23.656 47.1661 22.836 48.8861 22.5614V26.7829Z" fill="#0049E7"/>
<path d="M42.3076 28.5944H46.6985C46.8769 28.2821 47.096 27.9964 47.3491 27.7433C48.0721 27.0202 49.0676 26.5717 50.1607 26.5717C51.2538 26.5717 52.2499 27.0202 52.973 27.7433C53.6961 28.4664 54.1446 29.4618 54.1446 30.5556C54.1446 28.4967 54.9283 26.6132 56.2116 25.1893C56.1043 25.0686 55.9933 24.951 55.8793 24.837C54.4132 23.3709 52.3891 22.4606 50.1607 22.4606C47.9323 22.4606 45.9089 23.3709 44.4428 24.837C43.4214 25.8583 42.6695 27.1505 42.3076 28.5944Z" fill="#0049E7"/>
<path d="M48.8861 46.1766C48.3014 45.9767 47.7767 45.6444 47.3482 45.2159C46.6251 44.4929 46.1759 43.4967 46.1759 42.4036V38.4863H42.0654V42.4036C42.0654 44.632 42.9757 46.6561 44.4418 48.1223C45.6223 49.3034 47.1654 50.1234 48.8861 50.3973V46.1766Z" fill="#0049E7"/>
<path d="M30.251 44.4137H34.6419C34.8203 44.7253 35.0393 45.011 35.2924 45.2641C36.0155 45.9872 37.0109 46.4357 38.104 46.4357C39.1971 46.4357 40.1933 45.9872 40.9164 45.2641C41.6394 44.541 42.0879 43.5456 42.0879 42.4525C42.0879 44.5114 42.8717 46.3942 44.155 47.8181C44.0477 47.9388 43.9367 48.0564 43.8227 48.1704C42.3566 49.6365 40.3324 50.5468 38.104 50.5468C35.8756 50.5468 33.8515 49.6365 32.3854 48.1704C31.3641 47.1491 30.6129 45.8569 30.251 44.4137Z" fill="#0049E7"/>
<defs>
<linearGradient id="paint0_linear_1118_3128" x1="24.5993" y1="50.2569" x2="74.7949" y2="21.5253" gradientUnits="userSpaceOnUse">
<stop stop-color="#54CDEE"/>
<stop offset="0.49" stop-color="#0463EF"/>
<stop offset="1" stop-color="#51F5EA"/>
</linearGradient>
<linearGradient id="paint1_linear_1118_3128" x1="25.3774" y1="51.6173" x2="75.573" y2="22.8857" gradientUnits="userSpaceOnUse">
<stop stop-color="#F98AFE"/>
<stop offset="0.49" stop-color="#0463EF"/>
<stop offset="1" stop-color="#51F5EA"/>
</linearGradient>
<linearGradient id="paint2_linear_1118_3128" x1="24.8924" y1="50.7705" x2="75.088" y2="22.0397" gradientUnits="userSpaceOnUse">
<stop stop-color="#F98AFE"/>
<stop offset="0.49" stop-color="#0463EF"/>
<stop offset="1" stop-color="#51F5EA"/>
</linearGradient>
<linearGradient id="paint3_linear_1118_3128" x1="24.9882" y1="50.9369" x2="75.1838" y2="22.2052" gradientUnits="userSpaceOnUse">
<stop stop-color="#5CDDFF"/>
<stop offset="0.49" stop-color="#0463EF"/>
<stop offset="1" stop-color="#51F5EA"/>
</linearGradient>
</defs>
</svg>
