<svg width="544" height="119" viewBox="0 0 544 119" fill="none" xmlns="http://www.w3.org/2000/svg">
<path d="M166.501 65.1C166.301 67 166.301 80.2 166.301 80.2C168.601 80.5 170.701 80.6 173.101 80.6C181.101 80.6 184.501 77.3 184.501 72.8C184.501 67.6 180.201 64.8 172.501 64.8C170.101 64.8 168.301 65 166.501 65.1ZM165.701 37.9C165.601 40 165.601 52.1 165.601 52.1C166.701 52.2 167.901 52.2 169.901 52.2C177.201 52.2 180.901 49.6 180.901 44.9C180.901 39.4 174.701 37.6 170.301 37.6C168.301 37.6 166.701 37.8 165.701 37.9ZM190.401 57.4V58C196.701 59.3 203.301 65.1 203.301 75.2C203.301 88.7 192.901 94.6 175.301 94.6C165.801 94.6 149.701 93.8 149.201 93.4C148.701 93 148.101 26 148.401 25.2C148.701 24.4 167.001 24 168.501 24C184.501 24 198.601 28.4 198.601 43C198.601 51.1 195.201 54.9 190.401 57.4Z" fill="black"/>
<path d="M223.97 73.6C223.97 78.9 227.77 82.2 234.67 82.2C240.07 82.2 243.77 80.3 246.37 78.7C247.37 79.7 251.47 88 251.57 89.5C248.87 92 241.97 95.2 233.87 95.2C215.77 95.2 208.47 83.1 208.47 70.3C208.47 56.8 216.87 44.2 232.57 44.2C245.87 44.2 253.97 54.2 253.97 65.4C253.97 68.5 253.67 71.1 253.07 73.1C248.07 73.8 229.97 73.8 223.97 73.6ZM223.87 64.4L239.57 64.1C239.77 59.2 237.27 55.4 232.47 55.4C227.27 55.4 223.87 59.3 223.87 64.4Z" fill="black"/>
<path d="M294.761 44.9C296.361 45.8 294.361 59.6 292.661 61.6C291.061 61.2 287.761 60.5 285.661 60.6C281.061 60.7 278.661 63.9 278.061 68.3C277.861 70.5 278.661 93.8 278.261 94.1C278.061 94.5 261.861 94.7 261.561 94.1C261.261 93.7 261.261 47.9 261.661 46C262.561 44.4 276.361 43.9 277.261 44.8C277.361 46.9 277.261 51.1 277.261 51.7C280.961 45.2 288.061 43.9 294.761 44.9Z" fill="black"/>
<path d="M299.402 54.8C299.502 53.1 306.102 43.7 319.502 43.7C331.902 43.7 341.502 51 341.502 65.6C341.502 76.3 341.002 92.9 340.702 93.5C340.402 94.1 327.802 93.5 327.802 93.5L326.902 89.2C326.202 89.9 322.002 94.7 314.102 94.7C303.202 94.7 298.602 88.3 298.602 79.6C298.602 70.6 306.502 64.9 316.502 64.9C321.102 64.9 323.902 66.2 325.802 67.6C325.902 63.3 326.102 57.4 317.102 57.4C310.902 57.4 308.002 61.8 307.102 61.9C306.202 61.9 299.302 55.9 299.402 54.8ZM312.002 79.3C312.002 82.6 314.802 84.9 318.502 84.9C322.902 84.9 325.102 82.3 325.102 79.3C325.102 75.8 322.202 73.6 318.502 73.6C314.602 73.6 312.002 76.1 312.002 79.3Z" fill="black"/>
<path d="M369.402 95.7C359.402 95.7 350.302 91.7 348.902 90.2C348.102 89.2 352.702 78.3 353.502 78.7C355.102 79.5 361.302 84 367.702 84C371.702 84 373.702 82.6 373.702 80.4C373.702 78.2 372.102 77 365.602 75.8C354.402 73.9 349.202 69.2 349.202 60.8C349.202 50.1 356.502 43.9 368.802 43.9C378.002 43.9 386.102 47 387.402 48.3C388.302 49.2 383.702 59.7 383.002 59.8C382.502 59.8 376.102 55.9 370.302 55.9C366.402 55.9 364.702 57.8 364.702 59.8C364.702 62 366.402 63 372.202 63.8C384.102 65.5 389.402 69.6 389.402 78.9C389.402 87.7 383.402 95.7 369.402 95.7Z" fill="black"/>
<path d="M410.01 70C410.01 79.6 416.71 81.3 421.01 81.3C425.61 81.3 430.41 78.3 431.61 77.7C432.61 77.4 436.31 84.6 437.61 87.4C435.01 91.7 428.11 95.3 420.41 95.3C401.61 95.3 394.21 81.8 394.21 69.2C394.21 56.6 403.91 44.2 420.11 44.2C430.71 44.2 437.21 48.5 437.51 49.5C437.81 50.7 435.01 62.1 433.21 62.7C432.51 62.8 427.31 58.3 421.51 58.3C414.41 58.3 410.01 62.3 410.01 70Z" fill="black"/>
<path d="M442.957 54.8C443.057 53.1 449.657 43.7 463.057 43.7C475.457 43.7 485.057 51 485.057 65.6C485.057 76.3 484.557 92.9 484.257 93.5C483.957 94.1 471.357 93.5 471.357 93.5L470.457 89.2C469.757 89.9 465.557 94.7 457.657 94.7C446.757 94.7 442.157 88.3 442.157 79.6C442.157 70.6 450.057 64.9 460.057 64.9C464.657 64.9 467.457 66.2 469.357 67.6C469.457 63.3 469.657 57.4 460.657 57.4C454.457 57.4 451.557 61.8 450.657 61.9C449.757 61.9 442.857 55.9 442.957 54.8ZM455.557 79.3C455.557 82.6 458.357 84.9 462.057 84.9C466.457 84.9 468.657 82.3 468.657 79.3C468.657 75.8 465.757 73.6 462.057 73.6C458.157 73.6 455.557 76.1 455.557 79.3Z" fill="black"/>
<path d="M494.857 45.9C495.757 44.6 509.757 44 510.657 44.9C510.557 47 510.457 50.3 510.357 50.9C512.557 47.6 517.457 43.9 525.557 43.9C536.457 43.9 543.257 52.6 543.257 65.5C543.257 72.2 542.857 89.1 542.457 94C542.357 95 527.357 94.8 527.057 94.6C526.657 94.4 527.157 70.8 527.157 67.2C527.157 61.8 524.757 58 519.557 58C514.057 58 510.757 62.3 510.757 66.2C510.757 69.6 510.657 93.6 510.357 94C510.057 94.4 495.457 94.2 495.157 93.6C494.957 93.2 494.557 67.1 494.857 45.9Z" fill="black"/>
<path d="M89.25 0H29.75C13.3195 0 0 13.3195 0 29.75V89.25C0 105.68 13.3195 119 29.75 119H89.25C105.68 119 119 105.68 119 89.25V29.75C119 13.3195 105.68 0 89.25 0Z" fill="#A96C47"/>
<path d="M89.25 0H29.75C13.3195 0 0 13.3195 0 29.75V89.25C0 105.68 13.3195 119 29.75 119H89.25C105.68 119 119 105.68 119 89.25V29.75C119 13.3195 105.68 0 89.25 0Z" fill="url(#paint0_radial_17185_6810)"/>
<path d="M89.25 0H29.75C13.3195 0 0 13.3195 0 29.75V89.25C0 105.68 13.3195 119 29.75 119H89.25C105.68 119 119 105.68 119 89.25V29.75C119 13.3195 105.68 0 89.25 0Z" fill="url(#paint1_radial_17185_6810)"/>
<g filter="url(#filter0_di_17185_6810)">
<path d="M52.0167 55.8787C52.0167 48.7216 57.6789 42.9007 64.6365 42.9007C71.5942 42.9007 77.2563 48.7216 77.2563 55.8787C77.2563 63.0356 71.5942 68.8546 64.6365 68.8546C57.6789 68.8546 52.0167 63.0337 52.0167 55.8787ZM95.2008 38.7857C95.2008 31.3314 89.3256 25.2875 82.0751 25.2875C78.0606 25.2875 74.4707 27.1439 72.063 30.0639C68.2043 28.1503 63.973 27.0544 59.5008 27.1554C55.0286 27.0544 50.7973 28.1503 46.9385 30.0639C44.5309 27.1439 40.9409 25.2875 36.9265 25.2875C29.676 25.2875 23.8008 31.3314 23.8008 38.7857C23.8008 43.118 25.7876 46.97 28.8717 49.4402C22.244 63.5102 23.9138 75.4741 31.3162 83.4049L43.5023 70.873C44.5736 69.7713 46.0414 69.3215 47.4333 69.5255L49.9725 66.9143C47.7632 63.819 46.4566 60.0032 46.4566 55.8787C46.4566 45.5691 54.6115 37.1827 64.6365 37.1827C74.6615 37.1827 82.8165 45.5691 82.8165 55.8787C82.8165 66.1881 74.6596 74.5726 64.6365 74.5726C60.6258 74.5726 56.9134 73.2289 53.9036 70.9569L51.3662 73.5682C51.5645 75.0014 51.1272 76.5091 50.0559 77.6126L38.8818 89.1038C44.455 92.0467 51.4571 93.6801 59.5008 93.7125C86.8346 93.6039 102.166 74.9919 90.1299 49.4402C93.2139 46.97 95.2008 43.118 95.2008 38.7857Z" fill="white"/>
</g>
<defs>
<filter id="filter0_di_17185_6810" x="21.8008" y="24.2875" width="75.3984" height="72.425" filterUnits="userSpaceOnUse" color-interpolation-filters="sRGB">
<feFlood flood-opacity="0" result="BackgroundImageFix"/>
<feColorMatrix in="SourceAlpha" type="matrix" values="0 0 0 0 0 0 0 0 0 0 0 0 0 0 0 0 0 0 127 0" result="hardAlpha"/>
<feOffset dy="1"/>
<feGaussianBlur stdDeviation="1"/>
<feComposite in2="hardAlpha" operator="out"/>
<feColorMatrix type="matrix" values="0 0 0 0 0.909804 0 0 0 0 0.490196 0 0 0 0 0.247059 0 0 0 0.75 0"/>
<feBlend mode="normal" in2="BackgroundImageFix" result="effect1_dropShadow_17185_6810"/>
<feBlend mode="normal" in="SourceGraphic" in2="effect1_dropShadow_17185_6810" result="shape"/>
<feColorMatrix in="SourceAlpha" type="matrix" values="0 0 0 0 0 0 0 0 0 0 0 0 0 0 0 0 0 0 127 0" result="hardAlpha"/>
<feOffset dy="2"/>
<feGaussianBlur stdDeviation="2"/>
<feComposite in2="hardAlpha" operator="arithmetic" k2="-1" k3="1"/>
<feColorMatrix type="matrix" values="0 0 0 0 0 0 0 0 0 0 0 0 0 0 0 0 0 0 0.45 0"/>
<feBlend mode="normal" in2="shape" result="effect2_innerShadow_17185_6810"/>
</filter>
<radialGradient id="paint0_radial_17185_6810" cx="0" cy="0" r="1" gradientUnits="userSpaceOnUse" gradientTransform="translate(59.5 59.5) rotate(90) scale(59.5)">
<stop stop-color="#ECCAB5"/>
<stop offset="1" stop-color="#79492C"/>
</radialGradient>
<radialGradient id="paint1_radial_17185_6810" cx="0" cy="0" r="1" gradientUnits="userSpaceOnUse" gradientTransform="translate(59.5 59.5) rotate(90) scale(59.5)">
<stop stop-color="#D5AC94"/>
<stop offset="1" stop-color="#96532C"/>
</radialGradient>
</defs>
</svg>
